<svg xmlns="http://www.w3.org/2000/svg" version="1.1" xmlns:xlink="http://www.w3.org/1999/xlink" width="1000" height="1000"><style>
    #light-icon {
      display: inline;
    }
    #dark-icon {
      display: none;
    }

    @media (prefers-color-scheme: dark) {
      #light-icon {
        display: none;
      }
      #dark-icon {
        display: inline;
      }
    }
  </style><g id="light-icon"><svg xmlns="http://www.w3.org/2000/svg" version="1.1" xmlns:xlink="http://www.w3.org/1999/xlink" width="1000" height="1000"><g clip-path="url(#SvgjsClipPath1031)"><rect width="1000" height="1000" fill="#ffffff"></rect><g transform="matrix(1.7578125,0,0,1.7578125,50,50)"><svg xmlns="http://www.w3.org/2000/svg" version="1.1" xmlns:xlink="http://www.w3.org/1999/xlink" width="512" height="512"><svg width="512" height="512" viewBox="0 0 512 512" fill="none" xmlns="http://www.w3.org/2000/svg">
    <!-- Outer Circle -->
    <circle cx="256" cy="256" r="248" fill="#0F172A" stroke="#E2E8F0" stroke-width="16"></circle>

    <!-- Inner Circle -->
    <circle cx="256" cy="256" r="200" fill="#1E293B" stroke="#94A3B8" stroke-width="2" stroke-dasharray="4 4"></circle>

    <!-- Stopwatch Glass -->
    <circle cx="256" cy="256" r="160" fill="#0F172A"></circle>

    <!-- Clock Hands -->
    <line x1="256" y1="256" x2="256" y2="70" stroke="#F59E0B" stroke-width="16" stroke-linecap="round"></line>
    <path d="M256 256L336 192" stroke="#F59E0B" stroke-width="20" stroke-linecap="round"></path>

    <!-- Center Dot -->
    <circle cx="256" cy="256" r="24" fill="#F59E0B"></circle>
</svg></svg></g></g><defs><clipPath id="SvgjsClipPath1031"><rect width="1000" height="1000" x="0" y="0" rx="350" ry="350"></rect></clipPath></defs></svg></g><g id="dark-icon"><svg xmlns="http://www.w3.org/2000/svg" version="1.1" xmlns:xlink="http://www.w3.org/1999/xlink" width="1000" height="1000"><g><g transform="matrix(1.953125,0,0,1.953125,0,0)" style="filter: invert(100%)"><svg xmlns="http://www.w3.org/2000/svg" version="1.1" xmlns:xlink="http://www.w3.org/1999/xlink" width="512" height="512"><svg width="512" height="512" viewBox="0 0 512 512" fill="none" xmlns="http://www.w3.org/2000/svg">
    <!-- Outer Circle -->
    <circle cx="256" cy="256" r="248" fill="#0F172A" stroke="#E2E8F0" stroke-width="16"></circle>

    <!-- Inner Circle -->
    <circle cx="256" cy="256" r="200" fill="#1E293B" stroke="#94A3B8" stroke-width="2" stroke-dasharray="4 4"></circle>

    <!-- Stopwatch Glass -->
    <circle cx="256" cy="256" r="160" fill="#0F172A"></circle>

    <!-- Clock Hands -->
    <line x1="256" y1="256" x2="256" y2="70" stroke="#F59E0B" stroke-width="16" stroke-linecap="round"></line>
    <path d="M256 256L336 192" stroke="#F59E0B" stroke-width="20" stroke-linecap="round"></path>

    <!-- Center Dot -->
    <circle cx="256" cy="256" r="24" fill="#F59E0B"></circle>
</svg></svg></g></g></svg></g></svg>